<svg xmlns="http://www.w3.org/2000/svg" width="48" height="48" viewBox="0 0 48 48"><g transform="translate(0 -1004.362)"><circle cx="24" cy="1028.362" r="24" fill="#239fdb" fill-rule="evenodd"/><path fill="#fff" d="M 9.5,1 C 8.6776435,1 8,1.6777 8,2.5 l 0,4 C 8,7.3224 8.6776435,8 9.5,8 l 17,0 C 27.322356,8 28,7.3224 28,6.5 l 0,-1.9140625 c 0.0033,-0.011123 0.01239,-0.045779 0.04102,-0.085937 0.05987,-0.088 0.165726,-0.216075 0.296875,-0.359375 0.262296,-0.2865 0.629295,-0.6379562 0.998047,-0.9726562 0.7375,-0.6694 1.480468,-1.2753907 1.480468,-1.2753907 A 0.50005,0.50005 0 0 0 30.5,1 l -21,0 z m 0,1 19.65625,0 c -0.220257,0.19 -0.245376,0.1997281 -0.492188,0.4238281 -0.381244,0.346 -0.764252,0.7091094 -1.064453,1.0371094 -0.1501,0.1639 -0.278618,0.31645 -0.382812,0.46875 C 27.112603,4.0819875 27,4.2051 27,4.5 l 0,2 C 27,6.7857 26.785662,7 26.5,7 L 9.5,7 C 9.2143365,7 9,6.7857 9,6.5 l 0,-4 C 9,2.2144 9.2143365,2 9.5,2 Z m 6,2 A 0.5,0.5 0 0 0 15,4.5 0.5,0.5 0 0 0 15.5,5 0.5,0.5 0 0 0 16,4.5 0.5,0.5 0 0 0 15.5,4 Z m 2,0 A 0.5,0.5 0 0 0 17,4.5 0.5,0.5 0 0 0 17.5,5 0.5,0.5 0 0 0 18,4.5 0.5,0.5 0 0 0 17.5,4 Z m 2,0 A 0.5,0.5 0 0 0 19,4.5 0.5,0.5 0 0 0 19.5,5 0.5,0.5 0 0 0 20,4.5 0.5,0.5 0 0 0 19.5,4 Z M 1.5,8.9960938 1.5,9 A 0.50005,0.50005 0 0 0 1.1835938,9.8886719 c 0,0 0.7429683,0.6059911 1.4804687,1.2753901 0.3687502,0.334701 0.7357503,0.686157 0.9980469,0.972657 0.1311483,0.1433 0.2370074,0.271875 0.296875,0.359375 0.028644,0.04163 0.037726,0.07662 0.041016,0.08789 l 0,1.91211 c 0,0.8224 0.677644,1.5 1.5,1.5 l 16.9999996,0 c 0.822357,0 1.5,-0.6776 1.5,-1.5 l 0,-4 C 24,9.6737937 23.322357,8.9960938 22.5,8.9960938 l -21,0 z M 2.84375,10 22.5,10 c 0.285663,0 0.5,0.2144 0.5,0.5 l 0,4 c 0,0.2857 -0.214337,0.5 -0.5,0.5 l -17,0 C 5.214338,15 5,14.7857 5,14.5 l 0,-2 C 5,12.2051 4.8873971,12.081988 4.7832031,11.929688 4.6790091,11.777388 4.5504907,11.624838 4.4003906,11.460938 4.1001904,11.132938 3.7171831,10.769828 3.3359375,10.423828 3.0891267,10.199728 3.0640067,10.19 2.84375,10 Z M 11.5,12 A 0.5,0.5 0 0 0 11,12.5 0.5,0.5 0 0 0 11.5,13 0.5,0.5 0 0 0 12,12.5 0.5,0.5 0 0 0 11.5,12 Z m 2,0 A 0.5,0.5 0 0 0 13,12.5 0.5,0.5 0 0 0 13.5,13 0.5,0.5 0 0 0 14,12.5 0.5,0.5 0 0 0 13.5,12 Z m 2,0 A 0.5,0.5 0 0 0 15,12.5 0.5,0.5 0 0 0 15.5,13 0.5,0.5 0 0 0 16,12.5 0.5,0.5 0 0 0 15.5,12 Z m 2,5 C 16.677643,17 16,17.6777 16,18.5 l 0,3 c 0,0.8224 0.677643,1.5 1.5,1.5 l 9,0 c 0.822356,0 1.5,-0.6776 1.5,-1.5 l 0,-0.914062 c 0.0033,-0.01112 0.01239,-0.04578 0.04102,-0.08594 0.05987,-0.088 0.165726,-0.216075 0.296875,-0.359375 0.262296,-0.2865 0.629295,-0.637956 0.998047,-0.972656 0.7375,-0.6694 1.480468,-1.275391 1.480468,-1.275391 A 0.50005,0.50005 0 0 0 30.5,17 l -13,0 z m 0,1 11.65625,0 c -0.220257,0.19 -0.245376,0.199728 -0.492188,0.423828 -0.381244,0.346 -0.764252,0.70911 -1.064453,1.03711 -0.1501,0.1639 -0.278618,0.31645 -0.382812,0.46875 C 27.112603,20.081987 27,20.2051 27,20.5 l 0,1 c 0,0.2857 -0.214338,0.5 -0.5,0.5 l -9,0 C 17.214335,22 17,21.7857 17,21.5 l 0,-3 C 17,18.2144 17.214337,18 17.5,18 Z M 20,19.5 A 0.5,0.5 0 0 0 19.5,20 0.5,0.5 0 0 0 20,20.5 0.5,0.5 0 0 0 20.5,20 0.5,0.5 0 0 0 20,19.5 Z m 2,0 A 0.5,0.5 0 0 0 21.5,20 0.5,0.5 0 0 0 22,20.5 0.5,0.5 0 0 0 22.5,20 0.5,0.5 0 0 0 22,19.5 Z m 2,0 A 0.5,0.5 0 0 0 23.5,20 0.5,0.5 0 0 0 24,20.5 0.5,0.5 0 0 0 24.5,20 0.5,0.5 0 0 0 24,19.5 Z M 1.5,23.996094 1.5,24 a 0.50005,0.50005 0 0 0 -0.3164062,0.888672 c 0,0 0.7429683,0.605991 1.4804687,1.27539 0.3687502,0.334701 0.7357503,0.686157 0.9980469,0.972657 0.1311483,0.1433 0.2370074,0.271875 0.296875,0.359375 0.028644,0.04163 0.037726,0.07662 0.041016,0.08789 l 0,1.91211 c 0,0.8224 0.677644,1.5 1.5,1.5 l 12.9999996,0 c 0.822357,0 1.5,-0.6776 1.5,-1.5 l 0,-4 c 0,-0.8223 -0.677643,-1.5 -1.5,-1.5 l -16.9999996,0 z M 2.84375,25 18.5,25 c 0.285663,0 0.5,0.2144 0.5,0.5 l 0,4 c 0,0.2857 -0.214337,0.5 -0.5,0.5 l -13,0 C 5.214338,30 5,29.7857 5,29.5 l 0,-2 C 5,27.2051 4.8873971,27.081988 4.7832031,26.929688 4.6790091,26.777388 4.5504907,26.624838 4.4003906,26.460938 4.1001904,26.132938 3.7171831,25.769828 3.3359375,25.423828 3.0891267,25.199728 3.0640067,25.19 2.84375,25 Z M 10.5,27 A 0.5,0.5 0 0 0 10,27.5 0.5,0.5 0 0 0 10.5,28 0.5,0.5 0 0 0 11,27.5 0.5,0.5 0 0 0 10.5,27 Z m 2,0 A 0.5,0.5 0 0 0 12,27.5 0.5,0.5 0 0 0 12.5,28 0.5,0.5 0 0 0 13,27.5 0.5,0.5 0 0 0 12.5,27 Z m 2,0 A 0.5,0.5 0 0 0 14,27.5 0.5,0.5 0 0 0 14.5,28 0.5,0.5 0 0 0 15,27.5 0.5,0.5 0 0 0 14.5,27 Z" color="#000" font-family="sans-serif" font-weight="400" overflow="visible" transform="translate(7.998 1013.362)" style="line-height:normal;text-indent:0;text-align:start;text-decoration-line:none;text-decoration-style:solid;text-decoration-color:#000;text-transform:none;block-progression:tb;isolation:auto;mix-blend-mode:normal"/></g></svg>