<svg xmlns="http://www.w3.org/2000/svg" data-name="Layer 1" viewBox="0 0 64 64"><rect width="47" height="35" x="3" y="6" fill="#81d4fa" rx="3"/><rect width="4" height="36" x="46" y="7" opacity=".1"/><polygon fill="#fff" points="46 31 54 27 62 32 62 43 58 47 58 57 50 57 50 46 46 43 46 31"/><rect width="8" height="7" x="22" y="42" fill="#fff"/><rect width="22" height="7" x="15" y="50" fill="#fff"/><path d="M62,31H58V41l-3.2,2.4A2,2,0,0,0,54,45V56h2.29A2.71,2.71,0,0,0,59,53.29V44.5L62,42Z" opacity=".1"/><rect width="4" height="6" x="26" y="43" opacity=".1"/><rect width="3" height="7" x="34" y="50" opacity=".1"/><path fill="#4d4d4d" d="M62.89,29.71l-8-4a2,2,0,0,0-1.78,0L52,26.26V9.5a5,5,0,0,0-5-5H42a2,2,0,0,0,0,4h5a1,1,0,0,1,1,1V28.26l-2.89,1.45A2,2,0,0,0,44,31.5v8H5a1,1,0,0,1-1-1V9.5a1,1,0,0,1,1-1H34a2,2,0,0,0,0-4H5a5,5,0,0,0-5,5v29a5,5,0,0,0,5,5H20v4H17a5,5,0,0,0-5,5v2a5,5,0,0,0,5,5H35a5,5,0,0,0,5-5v-2a5,5,0,0,0-5-5H32v-4H44a2,2,0,0,0,.8,1.6L48,47.5v7a5,5,0,0,0,5,5h2a5,5,0,0,0,5-5v-7l3.2-2.4a2,2,0,0,0,.8-1.6v-12A2,2,0,0,0,62.89,29.71ZM36,52.5v2a1,1,0,0,1-1,1H17a1,1,0,0,1-1-1v-2a1,1,0,0,1,1-1H35A1,1,0,0,1,36,52.5Zm-8-5H24v-4h4Zm32-5-3.2,2.4a2,2,0,0,0-.8,1.6v8a1,1,0,0,1-1,1H53a1,1,0,0,1-1-1v-8a2,2,0,0,0-.8-1.6L48,42.5V32.74l4-2V36.5a2,2,0,0,0,4,0V30.74l4,2Z"/><circle cx="27" cy="33.5" r="2" fill="#fff"/></svg>